<mxfile host="app.diagrams.net" agent="Mozilla/5.0 (Windows NT 10.0; Win64; x64) AppleWebKit/537.36 (KHTML, like Gecko) Chrome/134.0.0.0 Safari/537.36" version="26.1.3">
  <diagram name="Página-1" id="dt3W-tQR8QuWwKvsBHUG">
    <mxGraphModel grid="1" page="1" gridSize="10" guides="1" tooltips="1" connect="1" arrows="1" fold="1" pageScale="1" pageWidth="827" pageHeight="1169" math="0" shadow="0">
      <root>
        <mxCell id="0" />
        <mxCell id="1" parent="0" />
        <mxCell id="_eighjVfGfXiHZGRX9kf-11" style="edgeStyle=orthogonalEdgeStyle;rounded=0;orthogonalLoop=1;jettySize=auto;html=1;exitX=0;exitY=0.25;exitDx=0;exitDy=0;entryX=0;entryY=0.5;entryDx=0;entryDy=0;" edge="1" parent="1" source="_eighjVfGfXiHZGRX9kf-1" target="_eighjVfGfXiHZGRX9kf-6">
          <mxGeometry relative="1" as="geometry" />
        </mxCell>
        <mxCell id="_eighjVfGfXiHZGRX9kf-1" value="Usuário&lt;div&gt;&lt;br&gt;&lt;/div&gt;&lt;div&gt;ID_USUARIO_PK&lt;/div&gt;&lt;div&gt;NOME_USUARIO&lt;/div&gt;&lt;div&gt;LOGIN_USUARIO&lt;/div&gt;&lt;div&gt;SENHA_USUARIO&lt;/div&gt;&lt;div&gt;&lt;br&gt;&lt;/div&gt;" style="whiteSpace=wrap;html=1;aspect=fixed;" vertex="1" parent="1">
          <mxGeometry x="70" y="120" width="136.25" height="136.25" as="geometry" />
        </mxCell>
        <mxCell id="_eighjVfGfXiHZGRX9kf-2" value="Colaboradores&lt;div&gt;&lt;br&gt;&lt;/div&gt;&lt;div&gt;ID_COLABORADOR_PK&lt;/div&gt;&lt;div&gt;&lt;span style=&quot;background-color: transparent; color: light-dark(rgb(0, 0, 0), rgb(255, 255, 255));&quot;&gt;NOME_COLABORADOR&lt;/span&gt;&lt;/div&gt;&lt;div&gt;CPF_COLABORADOR&lt;/div&gt;&lt;div&gt;DATA_NASCIMENTO&lt;/div&gt;" style="whiteSpace=wrap;html=1;aspect=fixed;" vertex="1" parent="1">
          <mxGeometry x="290" y="60" width="147.5" height="147.5" as="geometry" />
        </mxCell>
        <mxCell id="_eighjVfGfXiHZGRX9kf-8" style="edgeStyle=orthogonalEdgeStyle;rounded=0;orthogonalLoop=1;jettySize=auto;html=1;exitX=0;exitY=0.75;exitDx=0;exitDy=0;entryX=1;entryY=0.5;entryDx=0;entryDy=0;" edge="1" parent="1" source="_eighjVfGfXiHZGRX9kf-3" target="_eighjVfGfXiHZGRX9kf-5">
          <mxGeometry relative="1" as="geometry" />
        </mxCell>
        <mxCell id="_eighjVfGfXiHZGRX9kf-3" value="Equipamento&lt;div&gt;ID_EQUIPAMENTO_PK&lt;/div&gt;&lt;div&gt;NOME_EQUIPAMENTO&lt;/div&gt;&lt;div&gt;TIPO_EQUIPAMENTO&lt;/div&gt;&lt;div&gt;MODELO_EQUIPAMEN&lt;/div&gt;&lt;div&gt;DESC_EQUIPAMENTO&lt;/div&gt;&lt;div&gt;QUANTIDADE&lt;/div&gt;" style="whiteSpace=wrap;html=1;aspect=fixed;" vertex="1" parent="1">
          <mxGeometry x="530" y="60" width="152.5" height="152.5" as="geometry" />
        </mxCell>
        <mxCell id="_eighjVfGfXiHZGRX9kf-5" value="itens&lt;div&gt;id_itesm_emprestimo PK&lt;br&gt;&lt;div&gt;ID_EQUIPAMENTO_FK&lt;br&gt;&lt;/div&gt;&lt;div&gt;Id_Equipamento FK&lt;/div&gt;&lt;/div&gt;&lt;div&gt;quantidade&lt;/div&gt;" style="whiteSpace=wrap;html=1;aspect=fixed;" vertex="1" parent="1">
          <mxGeometry x="297.5" y="280" width="140" height="140" as="geometry" />
        </mxCell>
        <mxCell id="_eighjVfGfXiHZGRX9kf-7" style="edgeStyle=orthogonalEdgeStyle;rounded=0;orthogonalLoop=1;jettySize=auto;html=1;entryX=0;entryY=0.25;entryDx=0;entryDy=0;" edge="1" parent="1" source="_eighjVfGfXiHZGRX9kf-6" target="_eighjVfGfXiHZGRX9kf-5">
          <mxGeometry relative="1" as="geometry" />
        </mxCell>
        <mxCell id="_eighjVfGfXiHZGRX9kf-6" value="Empréstimo&lt;div&gt;ID_EMPRÉSTIMO_PK&lt;/div&gt;&lt;div&gt;ID_USUARIO_FK&lt;/div&gt;&lt;div&gt;ID_COLABORADOR_FK&lt;/div&gt;&lt;div&gt;DATA&lt;/div&gt;" style="whiteSpace=wrap;html=1;aspect=fixed;" vertex="1" parent="1">
          <mxGeometry x="-40" y="340" width="140" height="140" as="geometry" />
        </mxCell>
        <mxCell id="_eighjVfGfXiHZGRX9kf-10" style="edgeStyle=orthogonalEdgeStyle;rounded=0;orthogonalLoop=1;jettySize=auto;html=1;exitX=0;exitY=0.5;exitDx=0;exitDy=0;entryX=-0.021;entryY=0.621;entryDx=0;entryDy=0;entryPerimeter=0;" edge="1" parent="1" source="_eighjVfGfXiHZGRX9kf-2" target="_eighjVfGfXiHZGRX9kf-6">
          <mxGeometry relative="1" as="geometry">
            <mxPoint x="187.05" y="60.004999999999995" as="sourcePoint" />
            <mxPoint x="-127.05" y="392" as="targetPoint" />
            <Array as="points">
              <mxPoint x="290" y="110" />
              <mxPoint x="-126" y="110" />
              <mxPoint x="-126" y="427" />
            </Array>
          </mxGeometry>
        </mxCell>
      </root>
    </mxGraphModel>
  </diagram>
</mxfile>
